<?xml version="1.0" encoding="UTF-8" standalone="no"?>
<!-- Created with Inkscape (http://www.inkscape.org/) -->

<svg
   xmlns:dc="http://purl.org/dc/elements/1.1/"
   xmlns:cc="http://creativecommons.org/ns#"
   xmlns:rdf="http://www.w3.org/1999/02/22-rdf-syntax-ns#"
   xmlns:svg="http://www.w3.org/2000/svg"
   xmlns="http://www.w3.org/2000/svg"
   xmlns:xlink="http://www.w3.org/1999/xlink"
   xmlns:sodipodi="http://sodipodi.sourceforge.net/DTD/sodipodi-0.dtd"
   xmlns:inkscape="http://www.inkscape.org/namespaces/inkscape"
   width="512"
   height="512"
   id="svg2"
   version="1.1"
   inkscape:version="0.48.4 r9939"
   sodipodi:docname="simplydoneicon.svg"
   inkscape:export-filename="E:\workstation\active-dir\simplydoneicon16.png"
   inkscape:export-xdpi="2.8099999"
   inkscape:export-ydpi="2.8099999">
  <defs
     id="defs4">
    <linearGradient
       id="linearGradient3811">
      <stop
         id="stop3813"
         offset="0"
         style="stop-color:#1458e4;stop-opacity:0;" />
      <stop
         id="stop3817"
         offset="1"
         style="stop-color:#ffffff;stop-opacity:1;" />
    </linearGradient>
    <linearGradient
       id="linearGradient3789">
      <stop
         style="stop-color:#1458e4;stop-opacity:1;"
         offset="0"
         id="stop3791" />
      <stop
         id="stop3834"
         offset="0.70804483"
         style="stop-color:#2a69e9;stop-opacity:1;" />
      <stop
         id="stop3819"
         offset="0.8943724"
         style="stop-color:#417aee;stop-opacity:1;" />
      <stop
         id="stop3810"
         offset="1"
         style="stop-color:#1459e4;stop-opacity:0;" />
    </linearGradient>
    <linearGradient
       inkscape:collect="always"
       xlink:href="#linearGradient3789"
       id="linearGradient3902"
       x1="22.666973"
       y1="1016.8043"
       x2="489.33301"
       y2="1016.8043"
       gradientUnits="userSpaceOnUse" />
    <linearGradient
       inkscape:collect="always"
       xlink:href="#linearGradient3789-0"
       id="linearGradient3902-6"
       x1="22.666973"
       y1="1016.8043"
       x2="489.33301"
       y2="1016.8043"
       gradientUnits="userSpaceOnUse" />
    <linearGradient
       id="linearGradient3789-0">
      <stop
         style="stop-color:#1458e4;stop-opacity:1;"
         offset="0"
         id="stop3791-4" />
      <stop
         id="stop3819-9"
         offset="0"
         style="stop-color:#417aee;stop-opacity:1;" />
      <stop
         id="stop3797-4"
         offset="0.94444442"
         style="stop-color:#1459e4;stop-opacity:1;" />
      <stop
         style="stop-color:#7ea6f6;stop-opacity:1;"
         offset="1"
         id="stop3793-6" />
    </linearGradient>
    <linearGradient
       inkscape:collect="always"
       xlink:href="#linearGradient3789-0"
       id="linearGradient3920"
       x1="22.666973"
       y1="1016.8043"
       x2="489.33301"
       y2="1016.8043"
       gradientUnits="userSpaceOnUse" />
    <linearGradient
       id="linearGradient3922">
      <stop
         style="stop-color:#1458e4;stop-opacity:1;"
         offset="0"
         id="stop3924" />
      <stop
         id="stop3926"
         offset="0"
         style="stop-color:#417aee;stop-opacity:1;" />
      <stop
         id="stop3928"
         offset="0.94444442"
         style="stop-color:#1459e4;stop-opacity:1;" />
      <stop
         style="stop-color:#7ea6f6;stop-opacity:1;"
         offset="1"
         id="stop3930" />
    </linearGradient>
    <linearGradient
       gradientTransform="translate(-724.57143,-615.87072)"
       y2="1016.8043"
       x2="489.33301"
       y1="1016.8043"
       x1="22.666973"
       gradientUnits="userSpaceOnUse"
       id="linearGradient3934"
       xlink:href="#linearGradient3789-0"
       inkscape:collect="always" />
    <filter
       id="filter3847"
       inkscape:label="Glow"
       inkscape:menu="Shadows and Glows"
       inkscape:menu-tooltip="Glow of object's own color at the edges"
       color-interpolation-filters="sRGB">
      <feGaussianBlur
         id="feGaussianBlur3849"
         stdDeviation="5"
         result="result91" />
      <feComposite
         id="feComposite3851"
         in2="result91"
         in="SourceGraphic"
         operator="over" />
    </filter>
    <radialGradient
       inkscape:collect="always"
       xlink:href="#linearGradient3789"
       id="radialGradient3863"
       cx="338.57144"
       cy="287.71429"
       fx="338.57144"
       fy="287.71429"
       r="167.14285"
       gradientUnits="userSpaceOnUse" />
    <filter
       id="filter3944"
       y="-0.25"
       height="1.5"
       inkscape:menu-tooltip="Darkens the edge with an inner blur and adds a flexible glow"
       inkscape:menu="Shadows and Glows"
       inkscape:label="Dark and Glow"
       color-interpolation-filters="sRGB">
      <feGaussianBlur
         id="feGaussianBlur3946"
         stdDeviation="5"
         result="result6" />
      <feComposite
         id="feComposite3948"
         in2="result6"
         result="result8"
         in="SourceGraphic"
         operator="atop" />
      <feComposite
         id="feComposite3950"
         in2="SourceAlpha"
         result="result9"
         operator="over"
         in="result8" />
      <feColorMatrix
         id="feColorMatrix3952"
         values="1 0 0 0 0 0 1 0 0 0 0 0 1 0 0 0 0 0 1 0 "
         result="result10" />
      <feBlend
         id="feBlend3954"
         in2="result6"
         in="result10"
         mode="normal" />
    </filter>
    <filter
       id="filter4064"
       style="color-interpolation-filters:sRGB;"
       inkscape:label="Drop Shadow">
      <feFlood
         id="feFlood4066"
         flood-opacity="0.5"
         flood-color="rgb(255,255,255)"
         result="flood" />
      <feComposite
         id="feComposite4068"
         in2="SourceGraphic"
         in="flood"
         operator="in"
         result="composite1" />
      <feGaussianBlur
         id="feGaussianBlur4070"
         in="composite"
         stdDeviation="10"
         result="blur" />
      <feOffset
         id="feOffset4072"
         dx="0"
         dy="0"
         result="offset" />
      <feComposite
         id="feComposite4074"
         in2="offset"
         in="SourceGraphic"
         operator="over"
         result="composite2" />
    </filter>
    <filter
       id="filter3847-7"
       inkscape:label="Glow"
       inkscape:menu="Shadows and Glows"
       inkscape:menu-tooltip="Glow of object's own color at the edges"
       color-interpolation-filters="sRGB">
      <feGaussianBlur
         id="feGaussianBlur3849-4"
         stdDeviation="5"
         result="result91" />
      <feComposite
         id="feComposite3851-0"
         in2="result91"
         in="SourceGraphic"
         operator="over" />
    </filter>
    <filter
       id="filter3812"
       inkscape:label="Glow"
       inkscape:menu="Shadows and Glows"
       inkscape:menu-tooltip="Glow of object's own color at the edges"
       color-interpolation-filters="sRGB">
      <feGaussianBlur
         id="feGaussianBlur3814"
         stdDeviation="5"
         result="result91" />
      <feComposite
         id="feComposite3816"
         in2="result91"
         in="SourceGraphic"
         operator="over"
         result="fbSourceGraphic" />
      <feColorMatrix
         result="fbSourceGraphicAlpha"
         in="fbSourceGraphic"
         values="0 0 0 -1 0 0 0 0 -1 0 0 0 0 -1 0 0 0 0 1 0"
         id="feColorMatrix3920" />
      <feGaussianBlur
         id="feGaussianBlur3922"
         stdDeviation="5"
         result="result91"
         in="fbSourceGraphic" />
      <feComposite
         in2="result91"
         id="feComposite3924"
         in="fbSourceGraphic"
         operator="over" />
    </filter>
    <filter
       id="filter3902"
       inkscape:label="Glow"
       inkscape:menu="Shadows and Glows"
       inkscape:menu-tooltip="Glow of object's own color at the edges"
       color-interpolation-filters="sRGB">
      <feGaussianBlur
         id="feGaussianBlur3904"
         stdDeviation="5"
         result="result91" />
      <feComposite
         id="feComposite3906"
         in2="result91"
         in="SourceGraphic"
         operator="over" />
    </filter>
    <filter
       id="filter3908"
       inkscape:label="Glow"
       inkscape:menu="Shadows and Glows"
       inkscape:menu-tooltip="Glow of object's own color at the edges"
       color-interpolation-filters="sRGB">
      <feGaussianBlur
         id="feGaussianBlur3910"
         stdDeviation="5"
         result="result91" />
      <feComposite
         id="feComposite3912"
         in2="result91"
         in="SourceGraphic"
         operator="over" />
    </filter>
    <filter
       id="filter4380"
       inkscape:label="Glow"
       inkscape:menu="Shadows and Glows"
       inkscape:menu-tooltip="Glow of object's own color at the edges"
       color-interpolation-filters="sRGB">
      <feGaussianBlur
         id="feGaussianBlur4382"
         stdDeviation="5"
         result="result91" />
      <feComposite
         id="feComposite4384"
         in2="result91"
         in="SourceGraphic"
         operator="over"
         result="fbSourceGraphic" />
      <feColorMatrix
         result="fbSourceGraphicAlpha"
         in="fbSourceGraphic"
         values="0 0 0 -1 0 0 0 0 -1 0 0 0 0 -1 0 0 0 0 1 0"
         id="feColorMatrix4386" />
      <feGaussianBlur
         id="feGaussianBlur4388"
         stdDeviation="5"
         result="result91"
         in="fbSourceGraphic" />
      <feComposite
         id="feComposite4390"
         in2="result91"
         in="fbSourceGraphic"
         operator="over" />
    </filter>
  </defs>
  <sodipodi:namedview
     id="base"
     pagecolor="#ffffff"
     bordercolor="#666666"
     borderopacity="1.0"
     inkscape:pageopacity="0.0"
     inkscape:pageshadow="2"
     inkscape:zoom="0.175"
     inkscape:cx="-1267.5045"
     inkscape:cy="791.03743"
     inkscape:document-units="px"
     inkscape:current-layer="layer1"
     showgrid="false"
     inkscape:snap-center="false"
     inkscape:window-width="1366"
     inkscape:window-height="705"
     inkscape:window-x="-8"
     inkscape:window-y="-8"
     inkscape:window-maximized="1" />
  <metadata
     id="metadata7">
    <rdf:RDF>
      <cc:Work
         rdf:about="">
        <dc:format>image/svg+xml</dc:format>
        <dc:type
           rdf:resource="http://purl.org/dc/dcmitype/StillImage" />
        <dc:title></dc:title>
      </cc:Work>
    </rdf:RDF>
  </metadata>
  <g
     inkscape:label="Layer 1"
     inkscape:groupmode="layer"
     id="layer1"
     transform="translate(0,-540.36218)">
    <g
       id="g3796"
       transform="translate(-775.72768,482.86607)">
      <path
         id="path3761"
         transform="translate(0,540.36218)"
         d="m 263.15625,8.5625 c -113.77066,0 -206,92.22934 -206,206 0,113.77066 92.22934,206 206,206 113.77066,0 206,-92.22934 206,-206 0,-113.77066 -92.22934,-206 -206,-206 z m 0,28.96875 c 97.77166,0 177.03125,79.25959 177.03125,177.03125 0,97.77166 -79.25959,177.03125 -177.03125,177.03125 -97.77166,0 -177.03125,-79.25959 -177.03125,-177.03125 0,-97.77166 79.25959,-177.03125 177.03125,-177.03125 z"
         style="fill:#000000;stroke:none"
         inkscape:connector-curvature="0" />
      <g
         transform="matrix(0.8046875,0,0,0.8046875,-61.821216,440.29638)"
         id="g3775">
        <rect
           style="fill:#000000;stroke:none"
           id="rect3765"
           width="150"
           height="50"
           x="462.05115"
           y="65.916023"
           ry="25"
           transform="matrix(0.70710678,0.70710678,-0.70710678,0.70710678,0,0)" />
        <rect
           ry="25"
           y="562.0285"
           x="-115.93491"
           height="50"
           width="300"
           id="rect3767"
           style="fill:#000000;stroke:none"
           transform="matrix(0.70710678,-0.70710678,0.70710678,0.70710678,0,0)" />
      </g>
    </g>
    <path
       transform="matrix(1.6767442,0,0,1.6767442,-1243.1097,-115.85444)"
       d="m 554.2857,538.07648 c 0,67.85212 -55.00502,122.85714 -122.85714,122.85714 -67.85213,0 -122.85714,-55.00502 -122.85714,-122.85714 0,-67.85213 55.00501,-122.85714 122.85714,-122.85714 67.85212,0 122.85714,55.00501 122.85714,122.85714 z"
       sodipodi:ry="122.85714"
       sodipodi:rx="122.85714"
       sodipodi:cy="538.07648"
       sodipodi:cx="431.42856"
       id="path3785"
       style="fill:#000000;stroke:none"
       sodipodi:type="arc" />
    <path
       sodipodi:type="arc"
       style="fill:#ffffff;stroke:none"
       id="path3787"
       sodipodi:cx="431.42856"
       sodipodi:cy="538.07648"
       sodipodi:rx="122.85714"
       sodipodi:ry="122.85714"
       d="m 554.2857,538.07648 c 0,67.85212 -55.00502,122.85714 -122.85714,122.85714 -67.85213,0 -122.85714,-55.00502 -122.85714,-122.85714 0,-67.85213 55.00501,-122.85714 122.85714,-122.85714 67.85212,0 122.85714,55.00501 122.85714,122.85714 z"
       transform="matrix(1.4409521,0,0,1.4409521,-1141.3822,11.019781)" />
    <g
       transform="matrix(0.8046875,0,0,0.8046875,-844.67837,471.72497)"
       id="g3789">
      <rect
         style="fill:#000000;stroke:none"
         id="rect3791"
         width="150"
         height="50"
         x="462.05115"
         y="65.916023"
         ry="25"
         transform="matrix(0.70710678,0.70710678,-0.70710678,0.70710678,0,0)" />
      <rect
         ry="25"
         y="562.0285"
         x="-115.93491"
         height="50"
         width="300"
         id="rect3793"
         style="fill:#000000;stroke:none"
         transform="matrix(0.70710678,-0.70710678,0.70710678,0.70710678,0,0)" />
    </g>
    <path
       sodipodi:type="arc"
       style="fill:url(#radialGradient3863);fill-opacity:1;stroke:none"
       id="path3019"
       sodipodi:cx="338.57144"
       sodipodi:cy="287.71429"
       sodipodi:rx="167.14285"
       sodipodi:ry="167.14285"
       d="m 505.71429,287.71429 c 0,92.31045 -74.8324,167.14286 -167.14285,167.14286 -92.31045,0 -167.14285,-74.83241 -167.14285,-167.14286 0,-92.31044 74.8324,-167.14285 167.14285,-167.14285 92.31045,0 167.14285,74.83241 167.14285,167.14285 z"
       transform="matrix(1.4957265,0,0,1.4957265,-250.41028,366.02029)" />
    <text
       xml:space="preserve"
       style="font-size:77.41659546px;font-style:normal;font-weight:normal;line-height:125%;letter-spacing:0px;word-spacing:0px;fill:url(#linearGradient3934);fill-opacity:1;stroke:none;font-family:Sans"
       x="-704.05444"
       y="418.44144"
       id="text3779"
       sodipodi:linespacing="125%"><tspan
         sodipodi:role="line"
         id="tspan3781"
         x="-704.05444"
         y="418.44144"
         style="font-style:normal;font-variant:normal;font-weight:bold;font-stretch:normal;fill:url(#linearGradient3934);fill-opacity:1;font-family:Eras Bold ITC;-inkscape-font-specification:Eras Bold ITC Bold">SimplyDone</tspan></text>
    <path
       style="fill:#000000;fill-opacity:1;stroke:none;filter:url(#filter3847-7)"
       d="m 339.0383,1191.4137 c -6.39048,0 -12.7732,2.4431 -17.66991,7.3398 l -159.10681,159.1067 -53.0097,-53.0485 c -9.793429,-9.7934 -25.546379,-9.7934 -35.339809,0 -9.79343,9.7934 -9.79343,25.5464 0,35.3398 l 69.786399,69.7864 c 0.28692,0.3174 0.58717,0.626 0.89321,0.932 l 0.0388,0 c 0.29965,0.299 0.58275,0.6126 0.89321,0.8933 0.007,0.01 0.0319,-0.01 0.0388,0 0.31015,0.2797 0.6118,0.554 0.93204,0.8155 0.0139,0.011 0.025,0.027 0.0388,0.039 0.5185,0.4234 1.04963,0.7894 1.59223,1.165 0.13641,0.094 0.25053,0.2195 0.38835,0.3107 0.009,0.01 0.0299,-0.01 0.0388,0 0.68482,0.4518 1.38107,0.8654 2.09708,1.2427 0.01,0 0.0289,-0.01 0.0388,0 0.71587,0.376 1.4334,0.7469 2.17475,1.0486 0.0111,0.01 0.028,0 0.0388,0 0.74116,0.3003 1.4915,0.5894 2.25243,0.8155 0.0111,0 0.0273,0 0.0388,0 0.18241,0.054 0.36034,0.1058 0.54368,0.1554 1.25605,0.3421 2.51992,0.557 3.80583,0.699 0.10389,0.011 0.20664,0.029 0.31068,0.039 0.80862,0.079 1.63492,0.1164 2.4466,0.1164 0.78595,0 1.58584,-0.041 2.36893,-0.1164 1.5793,-0.1518 3.16551,-0.4401 4.69903,-0.8932 2.32733,-0.6915 4.5909,-1.721 6.67961,-3.1068 1.03284,-0.6834 2.00583,-1.4771 2.95145,-2.3301 0.31736,-0.2869 0.626,-0.5872 0.93205,-0.8932 l 0.93204,-0.9321 175.84467,-175.8446 c 9.79343,-9.7934 9.79343,-25.5464 0,-35.3398 -4.8967,-4.8967 -11.27941,-7.3398 -17.6699,-7.3398 z"
       id="rect3823-9"
       inkscape:connector-curvature="0" />
    <path
       style="fill:none;stroke:#ffffff;stroke-width:35;stroke-linecap:round;stroke-linejoin:round;stroke-miterlimit:4;stroke-opacity:1;stroke-dasharray:none;filter:url(#filter3812)"
       d="m 117.91878,845.65579 c 57.45737,155.59511 145.7921,47.82898 237.14286,-93.75344"
       id="path3042-1"
       inkscape:connector-curvature="0"
       sodipodi:nodetypes="cc" />
    <path
       style="fill:#ffffff;fill-opacity:1;stroke:none;filter:url(#filter4380)"
       d="m 409.8322,767.86056 c -16.81713,-48.83274 -52.56899,-68.21723 -106.25878,-47.53212 -53.68979,20.68511 70.53222,-48.57741 85.38915,-47.45365 14.85693,1.12376 37.68676,143.81851 20.86963,94.98577 z"
       id="path4376"
       inkscape:connector-curvature="0"
       sodipodi:nodetypes="zzzz" />
  </g>
</svg>
